<svg xmlns="http://www.w3.org/2000/svg" xmlns:xlink="http://www.w3.org/1999/xlink" version="1.1" width="256" height="256" viewBox="0 0 256 256" xml:space="preserve">
<g style="stroke: none; stroke-width: 0; stroke-dasharray: none; stroke-linecap: butt; stroke-linejoin: miter; stroke-miterlimit: 10; fill: none; fill-rule: nonzero; opacity: 1;" transform="translate(1.4065934065934016 1.4065934065934016) scale(2.81 2.81)">
	<path d="M 73.702 70.566 H 16.298 C 7.311 70.566 0 63.255 0 54.269 C 0 47.5 4.178 41.469 10.464 39.061 c 0.877 -7.693 7.458 -13.627 15.265 -13.627 c 4.17 0 8.097 1.667 10.983 4.622 c 3.826 -6.588 10.779 -10.623 18.477 -10.623 c 10.752 0 19.92 8.182 21.216 18.771 C 84.21 39.504 90 46.273 90 54.269 C 90 63.255 82.688 70.566 73.702 70.566 z M 25.729 27.434 c -6.981 0 -12.836 5.457 -13.33 12.423 c -0.028 0.402 -0.295 0.748 -0.677 0.876 C 5.907 42.699 2 48.139 2 54.269 c 0 7.884 6.414 14.298 14.298 14.298 h 57.404 C 81.586 68.566 88 62.152 88 54.269 c 0 -7.251 -5.428 -13.352 -12.626 -14.191 c -0.472 -0.055 -0.841 -0.436 -0.88 -0.909 c -0.836 -9.945 -9.316 -17.735 -19.306 -17.735 c -7.423 0 -14.081 4.138 -17.376 10.799 c -0.151 0.306 -0.448 0.513 -0.787 0.551 c -0.341 0.037 -0.674 -0.101 -0.888 -0.366 C 33.58 29.25 29.786 27.434 25.729 27.434 z" style="stroke: none; stroke-width: 1; stroke-dasharray: none; stroke-linecap: butt; stroke-linejoin: miter; stroke-miterlimit: 10; fill: rgb(91,34,0); fill-rule: nonzero; opacity: 1;" transform=" matrix(1 0 0 1 0 0) " stroke-linecap="round"/>
</g>
</svg>