<svg xmlns="http://www.w3.org/2000/svg" xmlns:xlink="http://www.w3.org/1999/xlink" version="1.1" width="256" height="256" viewBox="0 0 256 256" xml:space="preserve">
<g style="stroke: none; stroke-width: 0; stroke-dasharray: none; stroke-linecap: butt; stroke-linejoin: miter; stroke-miterlimit: 10; fill: none; fill-rule: nonzero; opacity: 1;" transform="translate(1.4065934065934016 1.4065934065934016) scale(2.81 2.81)">
	<path d="M 89 4.939 H 25.089 c -0.552 0 -1 0.448 -1 1 v 15.616 v 37.558 H 4.991 C 2.239 59.113 0 61.353 0 64.104 c 0 1.637 0.804 3.081 2.025 3.991 C 0.804 69.006 0 70.449 0 72.087 s 0.804 3.081 2.025 3.991 C 0.804 76.989 0 78.432 0 80.069 c 0 2.752 2.239 4.991 4.991 4.991 h 24.814 H 89 c 0.553 0 1 -0.447 1 -1 V 21.555 V 5.939 C 90 5.387 89.553 4.939 89 4.939 z M 26.089 6.939 H 88 v 13.616 H 26.089 V 6.939 z M 2 64.104 c 0 -1.649 1.342 -2.991 2.991 -2.991 h 24.814 c 1.649 0 2.991 1.342 2.991 2.991 s -1.342 2.991 -2.991 2.991 H 4.991 C 3.342 67.096 2 65.754 2 64.104 z M 2 72.087 c 0 -1.649 1.342 -2.991 2.991 -2.991 h 24.814 c 1.649 0 2.991 1.342 2.991 2.991 s -1.342 2.991 -2.991 2.991 H 4.991 C 3.342 75.078 2 73.736 2 72.087 z M 2 80.069 c 0 -1.649 1.342 -2.991 2.991 -2.991 h 24.814 c 1.649 0 2.991 1.342 2.991 2.991 s -1.342 2.991 -2.991 2.991 H 4.991 C 3.342 83.061 2 81.719 2 80.069 z M 33.776 83.061 c 0.632 -0.836 1.021 -1.865 1.021 -2.991 c 0 -1.637 -0.803 -3.081 -2.025 -3.991 c 1.222 -0.911 2.025 -2.354 2.025 -3.991 s -0.803 -3.081 -2.025 -3.991 c 1.222 -0.911 2.025 -2.354 2.025 -3.991 c 0 -2.752 -2.239 -4.991 -4.991 -4.991 h -3.716 V 22.555 H 88 v 50.701 H 40.378 c -0.552 0 -1 0.447 -1 1 s 0.448 1 1 1 H 88 v 7.805 H 33.776 z" style="stroke: none; stroke-width: 1; stroke-dasharray: none; stroke-linecap: butt; stroke-linejoin: miter; stroke-miterlimit: 10; fill: rgb(38,255,16); fill-rule: nonzero; opacity: 1;" transform=" matrix(1 0 0 1 0 0) " stroke-linecap="round"/>
	<path d="M 80.865 12.747 h -5.916 c -0.553 0 -1 0.448 -1 1 s 0.447 1 1 1 h 5.916 c 0.553 0 1 -0.448 1 -1 S 81.418 12.747 80.865 12.747 z" style="stroke: none; stroke-width: 1; stroke-dasharray: none; stroke-linecap: butt; stroke-linejoin: miter; stroke-miterlimit: 10; fill: rgb(38,255,16); fill-rule: nonzero; opacity: 1;" transform=" matrix(1 0 0 1 0 0) " stroke-linecap="round"/>
	<path d="M 68.052 12.747 h -5.916 c -0.553 0 -1 0.448 -1 1 s 0.447 1 1 1 h 5.916 c 0.553 0 1 -0.448 1 -1 S 68.604 12.747 68.052 12.747 z" style="stroke: none; stroke-width: 1; stroke-dasharray: none; stroke-linecap: butt; stroke-linejoin: miter; stroke-miterlimit: 10; fill: rgb(38,255,16); fill-rule: nonzero; opacity: 1;" transform=" matrix(1 0 0 1 0 0) " stroke-linecap="round"/>
	<path d="M 40.415 48.514 c 0.022 9.151 7.473 16.591 16.629 16.591 c 9.171 0 16.632 -7.461 16.632 -16.631 c 0 -0.005 -0.001 -0.01 -0.001 -0.014 c 0 -0.004 0 -0.008 -0.001 -0.012 c -0.015 -9.159 -7.469 -16.605 -16.63 -16.605 c -9.17 0 -16.631 7.461 -16.631 16.632 c 0 0.009 0.001 0.017 0.001 0.026 C 40.414 48.504 40.415 48.509 40.415 48.514 z M 57.044 63.104 c -7.589 0 -13.844 -5.81 -14.559 -13.215 c 2.284 0.728 4.56 1.114 6.82 1.114 c 2.738 0 5.453 -0.536 8.124 -1.607 c 4.684 -1.95 9.343 -2.012 14.212 -0.228 C 71.274 56.912 64.878 63.104 57.044 63.104 z M 57.044 33.842 c 7.584 0 13.836 5.801 14.559 13.198 c -5.058 -1.671 -10.078 -1.518 -14.931 0.506 c -4.621 1.852 -9.402 1.915 -14.223 0.222 C 42.82 40.029 49.215 33.842 57.044 33.842 z" style="stroke: none; stroke-width: 1; stroke-dasharray: none; stroke-linecap: butt; stroke-linejoin: miter; stroke-miterlimit: 10; fill: rgb(38,255,16); fill-rule: nonzero; opacity: 1;" transform=" matrix(1 0 0 1 0 0) " stroke-linecap="round"/>
	<path d="M 51.914 53.768 c -0.68 0 -1.232 0.552 -1.232 1.232 s 0.552 1.232 1.232 1.232 s 1.232 -0.552 1.232 -1.232 S 52.595 53.768 51.914 53.768 z" style="stroke: none; stroke-width: 1; stroke-dasharray: none; stroke-linecap: butt; stroke-linejoin: miter; stroke-miterlimit: 10; fill: rgb(38,255,16); fill-rule: nonzero; opacity: 1;" transform=" matrix(1 0 0 1 0 0) " stroke-linecap="round"/>
	<path d="M 63.907 50.77 c -0.68 0 -1.232 0.552 -1.232 1.232 c 0 0.68 0.552 1.232 1.232 1.232 c 0.68 0 1.232 -0.552 1.232 -1.232 C 65.139 51.322 64.588 50.77 63.907 50.77 z" style="stroke: none; stroke-width: 1; stroke-dasharray: none; stroke-linecap: butt; stroke-linejoin: miter; stroke-miterlimit: 10; fill: rgb(38,255,16); fill-rule: nonzero; opacity: 1;" transform=" matrix(1 0 0 1 0 0) " stroke-linecap="round"/>
	<path d="M 59.91 57.766 c -0.68 0 -1.232 0.552 -1.232 1.232 c 0 0.68 0.552 1.232 1.232 1.232 c 0.68 0 1.232 -0.552 1.232 -1.232 C 61.142 58.318 60.59 57.766 59.91 57.766 z" style="stroke: none; stroke-width: 1; stroke-dasharray: none; stroke-linecap: butt; stroke-linejoin: miter; stroke-miterlimit: 10; fill: rgb(38,255,16); fill-rule: nonzero; opacity: 1;" transform=" matrix(1 0 0 1 0 0) " stroke-linecap="round"/>
	<path d="M 35.567 9.459 c -2.364 0 -4.287 1.923 -4.287 4.288 s 1.923 4.288 4.287 4.288 c 2.364 0 4.288 -1.923 4.288 -4.288 S 37.932 9.459 35.567 9.459 z M 35.567 16.035 c -1.261 0 -2.287 -1.026 -2.287 -2.288 s 1.026 -2.288 2.287 -2.288 s 2.288 1.026 2.288 2.288 S 36.829 16.035 35.567 16.035 z" style="stroke: none; stroke-width: 1; stroke-dasharray: none; stroke-linecap: butt; stroke-linejoin: miter; stroke-miterlimit: 10; fill: rgb(38,255,16); fill-rule: nonzero; opacity: 1;" transform=" matrix(1 0 0 1 0 0) " stroke-linecap="round"/>
	<path d="M 47.216 9.459 c -2.364 0 -4.287 1.923 -4.287 4.288 s 1.923 4.288 4.287 4.288 c 2.364 0 4.288 -1.923 4.288 -4.288 S 49.58 9.459 47.216 9.459 z M 47.216 16.035 c -1.261 0 -2.287 -1.026 -2.287 -2.288 s 1.026 -2.288 2.287 -2.288 c 1.262 0 2.288 1.026 2.288 2.288 S 48.478 16.035 47.216 16.035 z" style="stroke: none; stroke-width: 1; stroke-dasharray: none; stroke-linecap: butt; stroke-linejoin: miter; stroke-miterlimit: 10; fill: rgb(38,255,16); fill-rule: nonzero; opacity: 1;" transform=" matrix(1 0 0 1 0 0) " stroke-linecap="round"/>
</g>
</svg>