<svg xmlns="http://www.w3.org/2000/svg" xmlns:xlink="http://www.w3.org/1999/xlink" version="1.1" width="256" height="256" viewBox="0 0 256 256" xml:space="preserve">
<g style="stroke: none; stroke-width: 0; stroke-dasharray: none; stroke-linecap: butt; stroke-linejoin: miter; stroke-miterlimit: 10; fill: none; fill-rule: nonzero; opacity: 1;" transform="translate(1.4065934065934016 1.4065934065934016) scale(2.81 2.81)">
	<path d="M 48.327 0.804 L 48.327 0.804 c 3.335 -1.709 7.422 -0.613 9.457 2.534 l 0 0 c 1.274 1.972 3.419 3.21 5.764 3.328 l 0 0 c 3.743 0.188 6.735 3.18 6.923 6.923 l 0 0 c 0.118 2.344 1.356 4.489 3.328 5.764 l 0 0 c 3.147 2.034 4.243 6.121 2.534 9.456 l 0 0 c -1.07 2.089 -1.07 4.566 0 6.655 l 0 0 c 1.709 3.335 0.613 7.422 -2.534 9.456 l 0 0 c -1.972 1.274 -3.21 3.419 -3.328 5.764 l 0 0 c -0.188 3.743 -3.18 6.735 -6.923 6.923 l 0 0 c -2.344 0.118 -4.489 1.356 -5.764 3.328 l 0 0 c -2.034 3.147 -6.121 4.243 -9.456 2.534 l 0 0 c -2.089 -1.07 -4.566 -1.07 -6.655 0 l 0 0 c -3.335 1.709 -7.422 0.613 -9.456 -2.534 l 0 0 c -1.274 -1.972 -3.419 -3.21 -5.764 -3.328 l 0 0 c -3.743 -0.188 -6.735 -3.18 -6.923 -6.923 l 0 0 c -0.118 -2.344 -1.356 -4.489 -3.328 -5.764 l 0 0 c -3.149 -2.033 -4.243 -6.121 -2.535 -9.456 l 0 0 c 1.07 -2.089 1.07 -4.566 0 -6.655 l 0 0 c -1.709 -3.335 -0.613 -7.422 2.534 -9.456 l 0 0 c 1.972 -1.274 3.21 -3.419 3.328 -5.764 l 0 0 c 0.188 -3.743 3.18 -6.735 6.923 -6.923 l 0 0 c 2.344 -0.118 4.489 -1.356 5.764 -3.328 l 0 0 c 2.034 -3.147 6.121 -4.243 9.456 -2.534 l 0 0 C 43.761 1.874 46.238 1.874 48.327 0.804 z" style="stroke: none; stroke-width: 1; stroke-dasharray: none; stroke-linecap: butt; stroke-linejoin: miter; stroke-miterlimit: 10; fill: rgb(255,209,92); fill-rule: nonzero; opacity: 1;" transform=" matrix(1 0 0 1 0 0) " stroke-linecap="round"/>
	<circle cx="44.995000000000005" cy="32.135" r="22.105" style="stroke: none; stroke-width: 1; stroke-dasharray: none; stroke-linecap: butt; stroke-linejoin: miter; stroke-miterlimit: 10; fill: rgb(237,164,58); fill-rule: nonzero; opacity: 1;" transform="  matrix(1 0 0 1 0 0) "/>
	<path d="M 57.784 60.933 c -2.034 3.147 -6.121 4.243 -9.456 2.534 c -2.089 -1.07 -4.566 -1.07 -6.655 0 c -3.335 1.709 -7.423 0.613 -9.456 -2.534 c -0.687 -1.063 -1.632 -1.903 -2.72 -2.479 V 90 L 45 77.228 L 60.503 90 V 58.454 C 59.416 59.03 58.471 59.87 57.784 60.933 z" style="stroke: none; stroke-width: 1; stroke-dasharray: none; stroke-linecap: butt; stroke-linejoin: miter; stroke-miterlimit: 10; fill: rgb(57,255,37); fill-rule: nonzero; opacity: 1;" transform=" matrix(1 0 0 1 0 0) " stroke-linecap="round"/>
	<polygon points="45,19.9 48.98,27.95 57.86,29.25 51.43,35.52 52.95,44.37 45,40.19 37.05,44.37 38.57,35.52 32.14,29.25 41.02,27.95 " style="stroke: none; stroke-width: 1; stroke-dasharray: none; stroke-linecap: butt; stroke-linejoin: miter; stroke-miterlimit: 10; fill: rgb(255,255,255); fill-rule: nonzero; opacity: 1;" transform="  matrix(1 0 0 1 0 0) "/>
</g>
</svg>